<svg width="194" height="74" viewBox="0 0 194 74" fill="none" xmlns="http://www.w3.org/2000/svg">
<path opacity="0.48" d="M13.041 40.7734L2.10352 38.0391L5.66797 1.90625H39.9941V13.625H16.8984L15.5801 28.9082C16.3288 28.3874 17.4355 27.8177 18.9004 27.1992C20.3978 26.5807 22.0579 26.2715 23.8809 26.2715C26.8105 26.2715 29.4147 26.8086 31.6934 27.8828C33.972 28.957 35.8926 30.5195 37.4551 32.5703C39.0176 34.6211 40.2057 37.1276 41.0195 40.0898C41.8333 43.0521 42.2402 46.4049 42.2402 50.1484C42.2402 53.306 41.8008 56.3171 40.9219 59.1816C40.0755 62.0462 38.7897 64.5853 37.0645 66.7988C35.3392 69.0124 33.1745 70.7702 30.5703 72.0723C27.9661 73.3418 24.9225 73.9766 21.4395 73.9766C18.8027 73.9766 16.2474 73.5208 13.7734 72.6094C11.332 71.6979 9.13477 70.347 7.18164 68.5566C5.22852 66.7337 3.66602 64.5527 2.49414 62.0137C1.32227 59.4421 0.736328 56.5124 0.736328 53.2246H14.2617C14.3919 55.1452 14.7663 56.8216 15.3848 58.2539C16.0358 59.6536 16.8496 60.7279 17.8262 61.4766C18.8353 62.2253 20.0072 62.5996 21.3418 62.5996C22.6439 62.5996 23.7669 62.2741 24.7109 61.623C25.6549 60.9395 26.4036 59.9954 26.957 58.791C27.5104 57.5866 27.9173 56.1868 28.1777 54.5918C28.4382 52.9642 28.5684 51.2227 28.5684 49.3672C28.5684 47.4792 28.3893 45.7702 28.0312 44.2402C27.7057 42.7103 27.1849 41.4082 26.4688 40.334C25.7852 39.2272 24.9062 38.3809 23.832 37.7949C22.7578 37.1764 21.4883 36.8672 20.0234 36.8672C18.0378 36.8672 16.5404 37.2904 15.5312 38.1367C14.5547 38.9505 13.7246 39.8294 13.041 40.7734ZM92.4844 31.2031V43.5566C92.4844 48.8952 91.9798 53.485 90.9707 57.3262C89.9616 61.1673 88.5456 64.3249 86.7227 66.7988C84.8997 69.2402 82.735 71.0469 80.2285 72.2188C77.722 73.3906 74.9551 73.9766 71.9277 73.9766C69.5189 73.9766 67.2565 73.6022 65.1406 72.8535C63.0247 72.1048 61.1042 70.9655 59.3789 69.4355C57.6862 67.873 56.2214 65.9036 54.9844 63.5273C53.7799 61.1185 52.8522 58.2702 52.2012 54.9824C51.5501 51.6621 51.2246 47.8535 51.2246 43.5566V31.2031C51.2246 25.8646 51.7292 21.291 52.7383 17.4824C53.7799 13.6413 55.2122 10.5 57.0352 8.05859C58.8581 5.61719 61.0228 3.82682 63.5293 2.6875C66.0684 1.51562 68.8516 0.929688 71.8789 0.929688C74.2552 0.929688 76.5013 1.30404 78.6172 2.05273C80.7656 2.76888 82.6699 3.89193 84.3301 5.42188C86.0228 6.95182 87.4714 8.92122 88.6758 11.3301C89.9128 13.7064 90.8568 16.5547 91.5078 19.875C92.1589 23.1628 92.4844 26.9388 92.4844 31.2031ZM78.7637 45.4609V29.2012C78.7637 26.6947 78.6497 24.4974 78.4219 22.6094C78.2266 20.7214 77.9499 19.1263 77.5918 17.8242C77.2337 16.5221 76.7617 15.4642 76.1758 14.6504C75.5898 13.8366 74.9388 13.2507 74.2227 12.8926C73.5065 12.502 72.709 12.3066 71.8301 12.3066C70.7884 12.3066 69.8444 12.5996 68.998 13.1855C68.1517 13.7715 67.4193 14.7318 66.8008 16.0664C66.1823 17.3685 65.7103 19.11 65.3848 21.291C65.0918 23.4395 64.9453 26.0762 64.9453 29.2012V45.4609C64.9453 47.9674 65.043 50.181 65.2383 52.1016C65.4661 54.0221 65.7754 55.666 66.166 57.0332C66.5892 58.3678 67.0612 59.4421 67.582 60.2559C68.1354 61.0697 68.7702 61.6719 69.4863 62.0625C70.235 62.4206 71.0488 62.5996 71.9277 62.5996C72.9694 62.5996 73.9134 62.3066 74.7598 61.7207C75.6387 61.1022 76.3711 60.1257 76.957 58.791C77.543 57.4564 77.9824 55.6986 78.2754 53.5176C78.6009 51.304 78.7637 48.6185 78.7637 45.4609ZM143.07 31.2031V43.5566C143.07 48.8952 142.566 53.485 141.557 57.3262C140.548 61.1673 139.132 64.3249 137.309 66.7988C135.486 69.2402 133.321 71.0469 130.814 72.2188C128.308 73.3906 125.541 73.9766 122.514 73.9766C120.105 73.9766 117.842 73.6022 115.727 72.8535C113.611 72.1048 111.69 70.9655 109.965 69.4355C108.272 67.873 106.807 65.9036 105.57 63.5273C104.366 61.1185 103.438 58.2702 102.787 54.9824C102.136 51.6621 101.811 47.8535 101.811 43.5566V31.2031C101.811 25.8646 102.315 21.291 103.324 17.4824C104.366 13.6413 105.798 10.5 107.621 8.05859C109.444 5.61719 111.609 3.82682 114.115 2.6875C116.654 1.51562 119.438 0.929688 122.465 0.929688C124.841 0.929688 127.087 1.30404 129.203 2.05273C131.352 2.76888 133.256 3.89193 134.916 5.42188C136.609 6.95182 138.057 8.92122 139.262 11.3301C140.499 13.7064 141.443 16.5547 142.094 19.875C142.745 23.1628 143.07 26.9388 143.07 31.2031ZM129.35 45.4609V29.2012C129.35 26.6947 129.236 24.4974 129.008 22.6094C128.812 20.7214 128.536 19.1263 128.178 17.8242C127.82 16.5221 127.348 15.4642 126.762 14.6504C126.176 13.8366 125.525 13.2507 124.809 12.8926C124.092 12.502 123.295 12.3066 122.416 12.3066C121.374 12.3066 120.43 12.5996 119.584 13.1855C118.738 13.7715 118.005 14.7318 117.387 16.0664C116.768 17.3685 116.296 19.11 115.971 21.291C115.678 23.4395 115.531 26.0762 115.531 29.2012V45.4609C115.531 47.9674 115.629 50.181 115.824 52.1016C116.052 54.0221 116.361 55.666 116.752 57.0332C117.175 58.3678 117.647 59.4421 118.168 60.2559C118.721 61.0697 119.356 61.6719 120.072 62.0625C120.821 62.4206 121.635 62.5996 122.514 62.5996C123.555 62.5996 124.499 62.3066 125.346 61.7207C126.225 61.1022 126.957 60.1257 127.543 58.791C128.129 57.4564 128.568 55.6986 128.861 53.5176C129.187 51.304 129.35 48.6185 129.35 45.4609ZM193.656 31.2031V43.5566C193.656 48.8952 193.152 53.485 192.143 57.3262C191.133 61.1673 189.717 64.3249 187.895 66.7988C186.072 69.2402 183.907 71.0469 181.4 72.2188C178.894 73.3906 176.127 73.9766 173.1 73.9766C170.691 73.9766 168.428 73.6022 166.312 72.8535C164.197 72.1048 162.276 70.9655 160.551 69.4355C158.858 67.873 157.393 65.9036 156.156 63.5273C154.952 61.1185 154.024 58.2702 153.373 54.9824C152.722 51.6621 152.396 47.8535 152.396 43.5566V31.2031C152.396 25.8646 152.901 21.291 153.91 17.4824C154.952 13.6413 156.384 10.5 158.207 8.05859C160.03 5.61719 162.195 3.82682 164.701 2.6875C167.24 1.51562 170.023 0.929688 173.051 0.929688C175.427 0.929688 177.673 1.30404 179.789 2.05273C181.938 2.76888 183.842 3.89193 185.502 5.42188C187.195 6.95182 188.643 8.92122 189.848 11.3301C191.085 13.7064 192.029 16.5547 192.68 19.875C193.331 23.1628 193.656 26.9388 193.656 31.2031ZM179.936 45.4609V29.2012C179.936 26.6947 179.822 24.4974 179.594 22.6094C179.398 20.7214 179.122 19.1263 178.764 17.8242C178.406 16.5221 177.934 15.4642 177.348 14.6504C176.762 13.8366 176.111 13.2507 175.395 12.8926C174.678 12.502 173.881 12.3066 173.002 12.3066C171.96 12.3066 171.016 12.5996 170.17 13.1855C169.324 13.7715 168.591 14.7318 167.973 16.0664C167.354 17.3685 166.882 19.11 166.557 21.291C166.264 23.4395 166.117 26.0762 166.117 29.2012V45.4609C166.117 47.9674 166.215 50.181 166.41 52.1016C166.638 54.0221 166.947 55.666 167.338 57.0332C167.761 58.3678 168.233 59.4421 168.754 60.2559C169.307 61.0697 169.942 61.6719 170.658 62.0625C171.407 62.4206 172.221 62.5996 173.1 62.5996C174.141 62.5996 175.085 62.3066 175.932 61.7207C176.811 61.1022 177.543 60.1257 178.129 58.791C178.715 57.4564 179.154 55.6986 179.447 53.5176C179.773 51.304 179.936 48.6185 179.936 45.4609Z" fill="#E8E8E8"/>
</svg>
