<svg width="195" height="74" viewBox="0 0 195 74" fill="none" xmlns="http://www.w3.org/2000/svg">
<path opacity="0.47" d="M43.5332 61.623V73H1.63867V63.2832L20.877 38.8203C22.7324 36.2487 24.181 34.0026 25.2227 32.082C26.2643 30.1289 27.013 28.3874 27.4688 26.8574C27.9245 25.2949 28.1523 23.8301 28.1523 22.4629C28.1523 20.347 27.9082 18.5404 27.4199 17.043C26.9316 15.513 26.1992 14.3411 25.2227 13.5273C24.2786 12.681 23.1068 12.2578 21.707 12.2578C20.0143 12.2578 18.6146 12.7786 17.5078 13.8203C16.401 14.862 15.571 16.2943 15.0176 18.1172C14.4967 19.9076 14.2363 21.9421 14.2363 24.2207H0.515625C0.515625 19.9564 1.37826 16.0501 3.10352 12.502C4.86133 8.95378 7.31901 6.13802 10.4766 4.05469C13.6667 1.9388 17.4915 0.880859 21.9512 0.880859C26.3132 0.880859 29.959 1.69466 32.8887 3.32227C35.8509 4.94987 38.0807 7.27734 39.5781 10.3047C41.1081 13.2995 41.873 16.8802 41.873 21.0469C41.873 23.4232 41.5638 25.7344 40.9453 27.9805C40.3268 30.194 39.4479 32.4076 38.3086 34.6211C37.1693 36.8021 35.7695 39.0319 34.1094 41.3105C32.4492 43.5892 30.5775 45.9492 28.4941 48.3906L19.2168 61.623H43.5332ZM93.875 1.90625V9.71875L71.4141 73H56.9609L79.5195 13.2832H50.9062V1.90625H93.875ZM144.07 31.2031V43.5566C144.07 48.8952 143.566 53.485 142.557 57.3262C141.548 61.1673 140.132 64.3249 138.309 66.7988C136.486 69.2402 134.321 71.0469 131.814 72.2188C129.308 73.3906 126.541 73.9766 123.514 73.9766C121.105 73.9766 118.842 73.6022 116.727 72.8535C114.611 72.1048 112.69 70.9655 110.965 69.4355C109.272 67.873 107.807 65.9036 106.57 63.5273C105.366 61.1185 104.438 58.2702 103.787 54.9824C103.136 51.6621 102.811 47.8535 102.811 43.5566V31.2031C102.811 25.8646 103.315 21.291 104.324 17.4824C105.366 13.6413 106.798 10.5 108.621 8.05859C110.444 5.61719 112.609 3.82682 115.115 2.6875C117.654 1.51562 120.438 0.929688 123.465 0.929688C125.841 0.929688 128.087 1.30404 130.203 2.05273C132.352 2.76888 134.256 3.89193 135.916 5.42188C137.609 6.95182 139.057 8.92122 140.262 11.3301C141.499 13.7064 142.443 16.5547 143.094 19.875C143.745 23.1628 144.07 26.9388 144.07 31.2031ZM130.35 45.4609V29.2012C130.35 26.6947 130.236 24.4974 130.008 22.6094C129.812 20.7214 129.536 19.1263 129.178 17.8242C128.82 16.5221 128.348 15.4642 127.762 14.6504C127.176 13.8366 126.525 13.2507 125.809 12.8926C125.092 12.502 124.295 12.3066 123.416 12.3066C122.374 12.3066 121.43 12.5996 120.584 13.1855C119.738 13.7715 119.005 14.7318 118.387 16.0664C117.768 17.3685 117.296 19.11 116.971 21.291C116.678 23.4395 116.531 26.0762 116.531 29.2012V45.4609C116.531 47.9674 116.629 50.181 116.824 52.1016C117.052 54.0221 117.361 55.666 117.752 57.0332C118.175 58.3678 118.647 59.4421 119.168 60.2559C119.721 61.0697 120.356 61.6719 121.072 62.0625C121.821 62.4206 122.635 62.5996 123.514 62.5996C124.555 62.5996 125.499 62.3066 126.346 61.7207C127.225 61.1022 127.957 60.1257 128.543 58.791C129.129 57.4564 129.568 55.6986 129.861 53.5176C130.187 51.304 130.35 48.6185 130.35 45.4609ZM194.656 31.2031V43.5566C194.656 48.8952 194.152 53.485 193.143 57.3262C192.133 61.1673 190.717 64.3249 188.895 66.7988C187.072 69.2402 184.907 71.0469 182.4 72.2188C179.894 73.3906 177.127 73.9766 174.1 73.9766C171.691 73.9766 169.428 73.6022 167.312 72.8535C165.197 72.1048 163.276 70.9655 161.551 69.4355C159.858 67.873 158.393 65.9036 157.156 63.5273C155.952 61.1185 155.024 58.2702 154.373 54.9824C153.722 51.6621 153.396 47.8535 153.396 43.5566V31.2031C153.396 25.8646 153.901 21.291 154.91 17.4824C155.952 13.6413 157.384 10.5 159.207 8.05859C161.03 5.61719 163.195 3.82682 165.701 2.6875C168.24 1.51562 171.023 0.929688 174.051 0.929688C176.427 0.929688 178.673 1.30404 180.789 2.05273C182.938 2.76888 184.842 3.89193 186.502 5.42188C188.195 6.95182 189.643 8.92122 190.848 11.3301C192.085 13.7064 193.029 16.5547 193.68 19.875C194.331 23.1628 194.656 26.9388 194.656 31.2031ZM180.936 45.4609V29.2012C180.936 26.6947 180.822 24.4974 180.594 22.6094C180.398 20.7214 180.122 19.1263 179.764 17.8242C179.406 16.5221 178.934 15.4642 178.348 14.6504C177.762 13.8366 177.111 13.2507 176.395 12.8926C175.678 12.502 174.881 12.3066 174.002 12.3066C172.96 12.3066 172.016 12.5996 171.17 13.1855C170.324 13.7715 169.591 14.7318 168.973 16.0664C168.354 17.3685 167.882 19.11 167.557 21.291C167.264 23.4395 167.117 26.0762 167.117 29.2012V45.4609C167.117 47.9674 167.215 50.181 167.41 52.1016C167.638 54.0221 167.947 55.666 168.338 57.0332C168.761 58.3678 169.233 59.4421 169.754 60.2559C170.307 61.0697 170.942 61.6719 171.658 62.0625C172.407 62.4206 173.221 62.5996 174.1 62.5996C175.141 62.5996 176.085 62.3066 176.932 61.7207C177.811 61.1022 178.543 60.1257 179.129 58.791C179.715 57.4564 180.154 55.6986 180.447 53.5176C180.773 51.304 180.936 48.6185 180.936 45.4609Z" fill="#E8E8E8"/>
</svg>
