<svg width="191" height="74" viewBox="0 0 191 74" fill="none" xmlns="http://www.w3.org/2000/svg">
<path opacity="0.48" d="M27.9609 1.75977V73H14.2891V18.5566L0.714844 23.7812V12.3555L26.4961 1.75977H27.9609ZM89.875 1.90625V9.71875L67.4141 73H52.9609L75.5195 13.2832H46.9062V1.90625H89.875ZM140.07 31.2031V43.5566C140.07 48.8952 139.566 53.485 138.557 57.3262C137.548 61.1673 136.132 64.3249 134.309 66.7988C132.486 69.2402 130.321 71.0469 127.814 72.2188C125.308 73.3906 122.541 73.9766 119.514 73.9766C117.105 73.9766 114.842 73.6022 112.727 72.8535C110.611 72.1048 108.69 70.9655 106.965 69.4355C105.272 67.873 103.807 65.9036 102.57 63.5273C101.366 61.1185 100.438 58.2702 99.7871 54.9824C99.1361 51.6621 98.8105 47.8535 98.8105 43.5566V31.2031C98.8105 25.8646 99.3151 21.291 100.324 17.4824C101.366 13.6413 102.798 10.5 104.621 8.05859C106.444 5.61719 108.609 3.82682 111.115 2.6875C113.654 1.51562 116.438 0.929688 119.465 0.929688C121.841 0.929688 124.087 1.30404 126.203 2.05273C128.352 2.76888 130.256 3.89193 131.916 5.42188C133.609 6.95182 135.057 8.92122 136.262 11.3301C137.499 13.7064 138.443 16.5547 139.094 19.875C139.745 23.1628 140.07 26.9388 140.07 31.2031ZM126.35 45.4609V29.2012C126.35 26.6947 126.236 24.4974 126.008 22.6094C125.812 20.7214 125.536 19.1263 125.178 17.8242C124.82 16.5221 124.348 15.4642 123.762 14.6504C123.176 13.8366 122.525 13.2507 121.809 12.8926C121.092 12.502 120.295 12.3066 119.416 12.3066C118.374 12.3066 117.43 12.5996 116.584 13.1855C115.738 13.7715 115.005 14.7318 114.387 16.0664C113.768 17.3685 113.296 19.11 112.971 21.291C112.678 23.4395 112.531 26.0762 112.531 29.2012V45.4609C112.531 47.9674 112.629 50.181 112.824 52.1016C113.052 54.0221 113.361 55.666 113.752 57.0332C114.175 58.3678 114.647 59.4421 115.168 60.2559C115.721 61.0697 116.356 61.6719 117.072 62.0625C117.821 62.4206 118.635 62.5996 119.514 62.5996C120.555 62.5996 121.499 62.3066 122.346 61.7207C123.225 61.1022 123.957 60.1257 124.543 58.791C125.129 57.4564 125.568 55.6986 125.861 53.5176C126.187 51.304 126.35 48.6185 126.35 45.4609ZM190.656 31.2031V43.5566C190.656 48.8952 190.152 53.485 189.143 57.3262C188.133 61.1673 186.717 64.3249 184.895 66.7988C183.072 69.2402 180.907 71.0469 178.4 72.2188C175.894 73.3906 173.127 73.9766 170.1 73.9766C167.691 73.9766 165.428 73.6022 163.312 72.8535C161.197 72.1048 159.276 70.9655 157.551 69.4355C155.858 67.873 154.393 65.9036 153.156 63.5273C151.952 61.1185 151.024 58.2702 150.373 54.9824C149.722 51.6621 149.396 47.8535 149.396 43.5566V31.2031C149.396 25.8646 149.901 21.291 150.91 17.4824C151.952 13.6413 153.384 10.5 155.207 8.05859C157.03 5.61719 159.195 3.82682 161.701 2.6875C164.24 1.51562 167.023 0.929688 170.051 0.929688C172.427 0.929688 174.673 1.30404 176.789 2.05273C178.938 2.76888 180.842 3.89193 182.502 5.42188C184.195 6.95182 185.643 8.92122 186.848 11.3301C188.085 13.7064 189.029 16.5547 189.68 19.875C190.331 23.1628 190.656 26.9388 190.656 31.2031ZM176.936 45.4609V29.2012C176.936 26.6947 176.822 24.4974 176.594 22.6094C176.398 20.7214 176.122 19.1263 175.764 17.8242C175.406 16.5221 174.934 15.4642 174.348 14.6504C173.762 13.8366 173.111 13.2507 172.395 12.8926C171.678 12.502 170.881 12.3066 170.002 12.3066C168.96 12.3066 168.016 12.5996 167.17 13.1855C166.324 13.7715 165.591 14.7318 164.973 16.0664C164.354 17.3685 163.882 19.11 163.557 21.291C163.264 23.4395 163.117 26.0762 163.117 29.2012V45.4609C163.117 47.9674 163.215 50.181 163.41 52.1016C163.638 54.0221 163.947 55.666 164.338 57.0332C164.761 58.3678 165.233 59.4421 165.754 60.2559C166.307 61.0697 166.942 61.6719 167.658 62.0625C168.407 62.4206 169.221 62.5996 170.1 62.5996C171.141 62.5996 172.085 62.3066 172.932 61.7207C173.811 61.1022 174.543 60.1257 175.129 58.791C175.715 57.4564 176.154 55.6986 176.447 53.5176C176.773 51.304 176.936 48.6185 176.936 45.4609Z" fill="#E8E8E8"/>
</svg>
